<svg width="48" height="42" viewBox="0 0 48 42" fill="none" xmlns="http://www.w3.org/2000/svg">
<path d="M1 2.11365C1 1.56136 1.44772 1.11365 2 1.11365H46C46.5523 1.11365 47 1.56136 47 2.11365V32.9886C47 33.5409 46.5523 33.9886 46 33.9886H2C1.44772 33.9886 1 33.5409 1 32.9886V2.11365Z" stroke="#BCBCBC" stroke-width="2"/>
<path d="M16 40.2728C16 40.2414 16.0254 40.2159 16.0568 40.2159H31.9432C31.9746 40.2159 32 40.2414 32 40.2728C32 40.3041 31.9746 40.3296 31.9432 40.3296H16.0568C16.0254 40.3296 16 40.3041 16 40.2728Z" fill="white" stroke="#BCBCBC" stroke-width="2"/>
<path d="M29.8748 40.3295H18.1253L18.8887 33.875H29.1113L29.8748 40.3295Z" stroke="#BCBCBC" stroke-width="2"/>
</svg>
