<svg width="51" height="39" viewBox="0 0 51 39" fill="none" xmlns="http://www.w3.org/2000/svg">
<path d="M6 2.28406C6 1.73177 6.44772 1.28406 7 1.28406H43C43.5523 1.28406 44 1.73177 44 2.28406V32.1022C44 32.6545 43.5523 33.1022 43 33.1022H7C6.44771 33.1022 6 32.6545 6 32.1022V2.28406Z" stroke="#F5A623" stroke-width="2"/>
<path d="M1.22892 34.1752C1.11191 33.5592 1.58426 32.9886 2.21136 32.9886H48.0042C48.6528 32.9886 49.1298 33.5966 48.9755 34.2266L48.4021 36.5675C48.2925 37.0149 47.8915 37.3296 47.4309 37.3296H2.65598C2.17565 37.3296 1.76317 36.988 1.67354 36.5162L1.22892 34.1752Z" stroke="#F5A623" stroke-width="2"/>
</svg>
