<svg width="21" height="36" viewBox="0 0 21 36" fill="none" xmlns="http://www.w3.org/2000/svg">
<path d="M1 33.3296V2.51184C1 1.95956 1.44772 1.51184 2 1.51184H19C19.5523 1.51184 20 1.95956 20 2.51184V33.3296C20 33.8819 19.5523 34.3296 19 34.3296H2C1.44772 34.3296 1 33.8819 1 33.3296Z" stroke="#BCBCBC" stroke-width="2"/>
<mask id="path-2-inside-1_0_90" fill="white">
<ellipse cx="10.5001" cy="30.9774" rx="1.4" ry="1.45074"/>
</mask>
<ellipse cx="10.5001" cy="30.9774" rx="1.4" ry="1.45074" fill="white"/>
<path d="M9.9001 30.9774C9.9001 30.7417 10.1022 30.4281 10.5001 30.4281V34.4281C12.4444 34.4281 13.9001 32.8154 13.9001 30.9774H9.9001ZM10.5001 30.4281C10.898 30.4281 11.1001 30.7417 11.1001 30.9774H7.1001C7.1001 32.8154 8.55581 34.4281 10.5001 34.4281V30.4281ZM11.1001 30.9774C11.1001 31.213 10.898 31.5266 10.5001 31.5266V27.5266C8.55581 27.5266 7.1001 29.1393 7.1001 30.9774H11.1001ZM10.5001 31.5266C10.1022 31.5266 9.9001 31.213 9.9001 30.9774H13.9001C13.9001 29.1393 12.4444 27.5266 10.5001 27.5266V31.5266Z" fill="#BCBCBC" mask="url(#path-2-inside-1_0_90)"/>
<mask id="path-4-inside-2_0_90" fill="white">
<path fill-rule="evenodd" clip-rule="evenodd" d="M1.3999 26.6251V28.0759H19.5999V26.6251H1.3999Z"/>
</mask>
<path fill-rule="evenodd" clip-rule="evenodd" d="M1.3999 26.6251V28.0759H19.5999V26.6251H1.3999Z" fill="white"/>
<path d="M1.3999 26.6251V24.6251H-0.600098V26.6251H1.3999ZM1.3999 28.0759H-0.600098V30.0759H1.3999V28.0759ZM19.5999 28.0759V30.0759H21.5999V28.0759H19.5999ZM19.5999 26.6251H21.5999V24.6251H19.5999V26.6251ZM-0.600098 26.6251V28.0759H3.3999V26.6251H-0.600098ZM1.3999 30.0759H19.5999V26.0759H1.3999V30.0759ZM21.5999 28.0759V26.6251H17.5999V28.0759H21.5999ZM19.5999 24.6251H1.3999V28.6251H19.5999V24.6251Z" fill="#BCBCBC" mask="url(#path-4-inside-2_0_90)"/>
</svg>
