<svg width="34" height="44" viewBox="0 0 34 44" fill="none" xmlns="http://www.w3.org/2000/svg">
<path d="M1 2C1 1.44772 1.44772 1 2 1H32C32.5523 1 33 1.44771 33 2V41.3295C33 41.8818 32.5523 42.3295 32 42.3295H2C1.44771 42.3295 1 41.8818 1 41.3295V2Z" stroke="#BCBCBC" stroke-width="2"/>
<mask id="path-2-inside-1_0_86" fill="white">
<ellipse cx="17" cy="37.9133" rx="1.7" ry="1.8054"/>
</mask>
<ellipse cx="17" cy="37.9133" rx="1.7" ry="1.8054" fill="white"/>
<path d="M16.7 37.9133C16.7 37.8984 16.707 37.8603 16.7461 37.8188C16.7871 37.7753 16.8769 37.7187 17 37.7187V41.7187C19.1551 41.7187 20.7 39.8999 20.7 37.9133H16.7ZM17 37.7187C17.1232 37.7187 17.213 37.7753 17.254 37.8188C17.2931 37.8603 17.3 37.8984 17.3 37.9133H13.3C13.3 39.8999 14.845 41.7187 17 41.7187V37.7187ZM17.3 37.9133C17.3 37.9282 17.2931 37.9663 17.254 38.0078C17.213 38.0514 17.1232 38.1079 17 38.1079V34.1079C14.845 34.1079 13.3 35.9267 13.3 37.9133H17.3ZM17 38.1079C16.8769 38.1079 16.7871 38.0514 16.7461 38.0078C16.707 37.9663 16.7 37.9282 16.7 37.9133H20.7C20.7 35.9267 19.1551 34.1079 17 34.1079V38.1079Z" fill="#BCBCBC" mask="url(#path-2-inside-1_0_86)"/>
<mask id="path-4-inside-2_0_86" fill="white">
<path fill-rule="evenodd" clip-rule="evenodd" d="M1.69995 32.4972V34.3026H32.3V32.4972H1.69995Z"/>
</mask>
<path fill-rule="evenodd" clip-rule="evenodd" d="M1.69995 32.4972V34.3026H32.3V32.4972H1.69995Z" fill="white"/>
<path d="M1.69995 32.4972V30.4972H-0.300049V32.4972H1.69995ZM1.69995 34.3026H-0.300049V36.3026H1.69995V34.3026ZM32.3 34.3026V36.3026H34.2999V34.3026H32.3ZM32.3 32.4972H34.2999V30.4972H32.3V32.4972ZM-0.300049 32.4972V34.3026H3.69995V32.4972H-0.300049ZM1.69995 36.3026H32.3V32.3026H1.69995V36.3026ZM34.2999 34.3026V32.4972H30.3V34.3026H34.2999ZM32.3 30.4972H1.69995V34.4972H32.3V30.4972Z" fill="#BCBCBC" mask="url(#path-4-inside-2_0_86)"/>
</svg>
